Coordinates
version=1
nRows=12
nColumns=24
inDegrees=yes

Units are S.I. units (second, meters, Newtons, ...)
Angles are in degrees.

endheader
time	pelvis_tilt	pelvis_list	pelvis_rotation	pelvis_tx	pelvis_ty	pelvis_tz	hip_flexion_r	hip_adduction_r	hip_rotation_r	knee_angle_r	ankle_angle_r	subtalar_angle_r	mtp_angle_r	hip_flexion_l	hip_adduction_l	hip_rotation_l	knee_angle_l	ankle_angle_l	subtalar_angle_l	mtp_angle_l	lumbar_extension	lumbar_bending	lumbar_rotation
      0.94250000	     -1.78031857	     -5.68910837	     -3.65991127	     -0.21044844	      0.99934575	      0.32491191	     -8.57100237	      6.62725082	     -3.94432598	    -11.31698699	      7.84879171	     -8.03038408	     -1.41125281	     22.91306438	     -7.15548000	     -8.74624144	      1.65572356	      2.30060773	    -10.33414668	    -11.07795293	     -9.55440080	      6.76940203	      4.99424298
      0.94666667	     -1.59002544	     -5.61423589	     -3.78368885	     -0.20439404	      0.99907612	      0.32498085	     -8.97666283	      6.44478764	     -3.88456123	    -11.65781083	      7.91855249	     -7.76366527	     -1.30018969	     22.68229048	     -7.10774254	     -8.55122161	      1.47314437	      2.22736627	    -10.41839403	    -11.03872819	     -9.74875201	      6.57365229	      5.19678413
      0.95083333	     -1.53072681	     -5.56999706	     -3.90349643	     -0.19839741	      0.99861413	      0.32510592	     -9.21533458	      6.32027205	     -3.77116552	    -12.04712789	      7.91458642	     -7.73225427	     -1.27076779	     22.65753063	     -7.10558286	     -8.36373331	      1.09337814	      2.22741751	    -10.46968396	    -11.02678304	     -9.79855583	      6.43046201	      5.22769875
      0.95500000	     -1.29899353	     -5.45688076	     -4.08044416	     -0.19229617	      0.99852763	      0.32532887	     -9.63342944	      6.08612227	     -3.64597979	    -12.44383546	      7.94624220	     -7.49454756	     -1.12017465	     22.36678718	     -7.04133751	     -8.22879956	      0.77361141	      2.07995086	    -10.65507062	    -10.96704413	    -10.03267695	      6.15902419	      5.50836367
      0.95916667	     -1.16852338	     -5.38601998	     -4.24094228	     -0.18626286	      0.99828081	      0.32556124	     -9.91803265	      5.91766744	     -3.48323241	    -12.88425199	      7.93705600	     -7.41655157	     -1.01228135	     22.24333695	     -7.02529505	     -8.07162524	      0.28864435	      2.02798578	    -10.80413167	    -10.92036450	    -10.15538383	      5.95193850	      5.62151537
      0.96333333	     -1.02211887	     -5.27308547	     -4.41927019	     -0.18017356	      0.99812506	      0.32579406	    -10.19391952	      5.68870232	     -3.34742873	    -13.36580462	      7.87686778	     -7.27807770	     -0.88128570	     22.08435726	     -6.96600635	     -7.96288527	     -0.21829637	      1.86428964	    -11.01332315	    -10.86366082	    -10.29933500	      5.69930132	      5.81433335
      0.96750000	     -0.86344410	     -5.15948664	     -4.60307220	     -0.17407111	      0.99803761	      0.32604453	    -10.46108223	      5.45529217	     -3.20689329	    -13.88194343	      7.77140126	     -7.16339428	     -0.71106379	     21.90679962	     -6.90604608	     -7.87324696	     -0.75683627	      1.63275529	    -11.25119788	    -10.78927082	    -10.44574187	      5.43252477	      6.02041503
      0.97166667	     -0.78099767	     -5.09076956	     -4.71520170	     -0.16799964	      0.99782227	      0.32616674	    -10.62495913	      5.28883288	     -3.13437308	    -14.43037810	      7.57820260	     -7.13541474	     -0.67555110	     21.87722114	     -6.87463012	     -7.77042707	     -1.43119606	      1.45230203	    -11.34653806	    -10.77432577	    -10.50348140	      5.25401041	      6.05214899
      0.97583333	     -0.64396558	     -4.94523303	     -4.96380963	     -0.16188905	      0.99781194	      0.32650969	    -10.79660534	      5.00409990	     -2.94533391	    -15.07257114	      7.47816815	     -6.94956197	     -0.50015681	     21.68248725	     -6.79629954	     -7.71825458	     -1.97753924	      1.10331051	    -11.78668746	    -10.70310905	    -10.62323981	      4.92668365	      6.33619326
      0.98000000	     -0.48945108	     -4.81696516	     -5.13610109	     -0.15575635	      0.99784222	      0.32669378	    -10.97213307	      4.74224574	     -2.85665110	    -15.72751807	      7.24553842	     -6.83738667	     -0.26920174	     21.50025113	     -6.70577726	     -7.66688142	     -2.57600241	      0.71973413	    -12.12824360	    -10.60776276	    -10.75261339	      4.63942325	      6.57898153
      0.98416667	     -0.39085155	     -4.70018181	     -5.30822275	     -0.14966061	      0.99781794	      0.32687624	    -11.04666096	      4.49980415	     -2.75234081	    -16.45311374	      6.99366492	     -6.75105316	     -0.05356791	     21.39458388	     -6.63255671	     -7.64361372	     -3.22329878	      0.35438008	    -12.42185879	    -10.52214459	    -10.82948331	      4.38002620	      6.70680054
      0.98833333	     -0.30017101	     -4.57598829	     -5.47058043	     -0.14355254	      0.99782234	      0.32701108	    -11.07469260	      4.24493584	     -2.68257051	    -17.23956059	      6.69270625	     -6.65401180	      0.18128600	     21.28791937	     -6.54368680	     -7.62550261	     -3.85872865	     -0.06996793	    -12.75892900	    -10.43359833	    -10.88645686	      4.10813239	      6.87658174
